<?xml version="1.0" encoding="UTF-8"?>
<svg width="32px" height="32px" viewBox="0 0 32 32" version="1.1" xmlns="http://www.w3.org/2000/svg" xmlns:xlink="http://www.w3.org/1999/xlink">
    <!-- Generator: Sketch 47.1 (45422) - http://www.bohemiancoding.com/sketch -->
    <title>Fill 1</title>
    <desc>Created with Sketch.</desc>
    <defs></defs>
    <g id="Page-1" stroke="none" stroke-width="1" fill="none" fill-rule="evenodd">
        <g id="car-ar" transform="translate(-67.000000, -67.000000)" fill="#FFFFFF">
            <g id="close" transform="translate(40.000000, 40.000000)">
                <path d="M43.9429299,55.236033 L44,55.1789696 L33.8212681,45 L57,45 C58.104,45 59,44.104 59,43 C59,41.896 58.104,41 57,41 L33.8212681,41 L44,30.8210304 L43.9429299,30.763967 C44.571905,30.4268337 45,29.7631065 45,29 C45,27.896 44.104,27 43,27 C42.2368099,27 41.5730208,27.4281888 41.2359221,28.0572769 L41.1786385,28 L27.6733282,41.5037254 C27.6135385,41.5567836 27.5569475,41.613368 27.5038823,41.6731514 L27,42.1769745 L27.1252248,42.3022732 C27.0442594,42.5195388 27,42.7546322 27,43 C27,43.2453678 27.0442594,43.4804612 27.1252248,43.6977268 L27,43.8230255 L27.5038823,44.3268486 C27.5569475,44.386632 27.6135385,44.4432164 27.6733282,44.4962746 L41.1786385,58 L41.2359221,57.9427231 C41.5730208,58.5718112 42.2368099,59 43,59 C44.104,59 45,58.104 45,57 C45,56.2368935 44.571905,55.5731663 43.9429299,55.236033 Z" id="Fill-1"></path>
            </g>
        </g>
    </g>
</svg>