<?xml version="1.0" encoding="UTF-8"?>
<svg width="256px" height="256px" viewBox="0 0 256 256" version="1.1" xmlns="http://www.w3.org/2000/svg" xmlns:xlink="http://www.w3.org/1999/xlink">
    <!-- Generator: Sketch 47.1 (45422) - http://www.bohemiancoding.com/sketch -->
    <title>icon-ar</title>
    <desc>Created with Sketch.</desc>
    <defs>
        <polygon id="path-1" points="244.829801 0.343571429 244.829801 113 122.415172 113 0.000543646409 113 0.000543646409 0.343571429"></polygon>
        <polygon id="path-3" points="146.576831 0.0313770492 0.464275 0.0313770492 0.464275 81.5709852 146.576831 81.5709852 146.576831 0.0313770492"></polygon>
    </defs>
    <g id="Page-1" stroke="none" stroke-width="1" fill="none" fill-rule="evenodd">
        <g id="icon-ar">
            <g id="Page-1" transform="translate(6.000000, 27.000000)">
                <g id="Group-3" transform="translate(0.000000, 90.000000)">
                    <mask id="mask-2" fill="white">
                        <use xlink:href="#path-1"></use>
                    </mask>
                    <g id="Clip-2"></g>
                    <path d="M203.132665,3.00492857 L203.132665,31.2389286 C214.291008,38.691 220.347229,46.6723571 220.347229,51.8810714 C220.347229,64.8390714 183.133273,88.5524286 122.414765,88.5524286 C61.6976155,88.5524286 24.4836597,64.8390714 24.4836597,51.8810714 C24.4836597,43.0895 31.3539912,35.4094286 41.6982232,29.3253571 L41.6982232,0.343571429 C17.2844221,10.4936429 0.000543646409,27.6669286 0.000543646409,51.8810714 C0.000543646409,85.6196429 54.8422343,113 122.414765,113 C189.988654,113 244.830345,90.7170714 244.830345,51.8810714 C244.830345,33.5555714 228.694919,15.3766429 203.132665,3.00492857" id="Fill-1" fill="#FFFFFF" mask="url(#mask-2)"></path>
                </g>
                <path d="M126.227063,87.1715388 L125,170 C126.677486,169.707944 128.249874,169.144208 129.692594,168.315584 L190.703139,133.257987 C195.204644,130.672952 198,125.854705 198,120.681917 L198,50.5694414 C198,48.6554553 197.616458,46.7618453 196.879401,45 L131.565264,78.587807 C128.324944,80.2545642 126.280295,83.5432515 126.227063,87.1715388" id="Fill-4" fill="#FFFFFF"></path>
                <path d="M47,121.644324 C47,126.799733 49.8695723,131.607738 54.4910368,134.194264 L116.844819,169.959148 C118.25584,170.748947 120.07156,170.88058 122,171 C122,170.983715 122,170.968788 122,170.953861 L120.739724,88.1674158 C120.685402,84.5522516 118.581773,81.2709202 115.25182,79.6017566 L48.1692862,46 C47.4006265,47.7695849 47,49.6762311 47,51.6005189 L47,121.644324 Z" id="Fill-6" fill="#FFFFFF"></path>
                <g id="Group-10" transform="translate(49.000000, 0.000000)">
                    <mask id="mask-4" fill="white">
                        <use xlink:href="#path-3"></use>
                    </mask>
                    <g id="Clip-9"></g>
                    <path d="M68.4708306,75.4317066 C71.2175528,76.8073295 73.3476917,78.9843787 74.6815806,81.5709852 C75.9651083,78.8632803 78.0979694,76.5869033 80.8623861,75.1582148 L146.576831,41.2139361 C146.119497,40.7703623 145.613164,40.3744115 145.049664,40.0505754 L77.5317472,1.08139508 C76.3176361,0.382018033 74.956525,0.0309688525 73.5954139,0.0309688525 C72.2343028,0.0309688525 70.8718306,0.382018033 69.6577194,1.08139508 L2.14116389,40.0505754 C1.517775,40.4097885 0.956997222,40.8520016 0.464275,41.3540836 L68.4708306,75.4317066 Z" id="Fill-8" fill="#FFFFFF" mask="url(#mask-4)"></path>
                </g>
            </g>
        </g>
    </g>
</svg>